<svg xmlns="http://www.w3.org/2000/svg" xmlns:xlink="http://www.w3.org/1999/xlink" viewBox="0 0 1280.9 460.8"><defs><style>.cls-1,.cls-4,.cls-5,.cls-6{fill:none;}.cls-2{clip-path:url(#clip-path);}.cls-3{clip-path:url(#clip-path-2);}.cls-4,.cls-5,.cls-6{stroke-miterlimit:10;}.cls-4{stroke-width:1.2px;stroke:url(#名称未設定グラデーション_118);}.cls-5{stroke-width:0.5px;stroke:url(#名称未設定グラデーション_188);}.cls-6{stroke-width:1.3px;stroke:url(#名称未設定グラデーション_189);}</style><clipPath id="clip-path" transform="translate(-76.09 -47.85)"><rect class="cls-1" x="93.54" width="1200" height="620"/></clipPath><clipPath id="clip-path-2" transform="translate(-76.09 -47.85)"><path class="cls-1" d="M0,668.39V1.6H1398.54V662.3H1243.26S986.37,266,1015.54,141c4.66-20-19.83-50.28-21-51-21-13-47.7-23.33-61.34-28.67-23-9,1.34-4.33-17.66,14.67-8,8-13.52,21.21-12.67,34.67.94,14.79,21.67,10.33,6.67,33.33-3.28,5-40.34,36.67-35,42s5.33,19.67,9,27.33c5.81,12.15-28.44,7.4-54.34,24.67-9,6-17.66,36.67-42.33,111-25.3,76.23,74.26,221.83,40.28,234.14C757.12,608.51,171.52,754.66,0,668.39Z"/></clipPath><linearGradient id="名称未設定グラデーション_118" x1="76.13" y1="278.25" x2="1356.95" y2="278.25" gradientUnits="userSpaceOnUse"><stop offset="0.09" stop-color="#2f7d20"/><stop offset="0.26" stop-color="#46aa35"/><stop offset="0.42" stop-color="#93cc0c"/><stop offset="0.5" stop-color="#9fe000"/><stop offset="0.61" stop-color="#88b813"/><stop offset="0.72" stop-color="#195708" stop-opacity="0.6"/><stop offset="1" stop-color="#2da720"/></linearGradient><linearGradient id="名称未設定グラデーション_188" x1="76.4" y1="278.25" x2="1356.71" y2="278.25" gradientUnits="userSpaceOnUse"><stop offset="0.18" stop-color="#61a518"/><stop offset="0.36" stop-color="#93cc0c"/><stop offset="0.52" stop-color="#9feb00"/><stop offset="0.66" stop-color="#88b813"/><stop offset="0.83" stop-color="#58a908" stop-opacity="0.8"/><stop offset="1" stop-color="#61c420"/></linearGradient><linearGradient id="名称未設定グラデーション_189" x1="76.09" y1="278.25" x2="1356.99" y2="278.25" gradientUnits="userSpaceOnUse"><stop offset="0.18" stop-color="#61a518"/><stop offset="0.36" stop-color="#93cc0c"/><stop offset="0.52" stop-color="#9feb00"/><stop offset="0.66" stop-color="#88b813"/><stop offset="0.83" stop-color="#58a908" stop-opacity="0"/><stop offset="1" stop-color="#61c420"/></linearGradient></defs><title>Asset 101</title><g id="Layer_2" data-name="Layer 2"><g id="レイヤー_7" data-name="レイヤー 7"><g class="cls-2"><g class="cls-3"><path class="cls-4" d="M76.6,368c74.94,95,134.94,140,245.79,140,131.15,0,255.53-63,497-286C993.87,60.85,1038.54,48.5,1101,48.5c65.5,0,132.5,27.5,255.5,144.5" transform="translate(-76.09 -47.85)"/><path class="cls-4" d="M76.6,368c74.94,95,134.94,140,245.79,140,131.15,0,255.53-63,497-286C993.87,60.85,1038.54,48.5,1101,48.5c65.5,0,132.5,27.5,255.5,144.5" transform="translate(-76.09 -47.85)"/><path class="cls-5" d="M76.6,368c74.94,95,134.94,140,245.79,140,131.15,0,255.53-63,497-286C993.87,60.85,1038.54,48.5,1101,48.5c65.5,0,132.5,27.5,255.5,144.5" transform="translate(-76.09 -47.85)"/><path class="cls-6" d="M76.6,368c74.94,95,134.94,140,245.79,140,131.15,0,255.53-63,497-286C993.87,60.85,1038.54,48.5,1101,48.5c65.5,0,132.5,27.5,255.5,144.5" transform="translate(-76.09 -47.85)"/></g></g></g></g></svg>